# xmcd
#
# Track frame offsets:
#	150
#	12386
#	30192
#	43750
#	57475
#	76215
#	88461
#	105407
#	117750
#	136040
#	158087
#	170376
#
# Disc length: 2510 seconds
#
# Revision: 1
# Processed by: cddbd v1.5.2PL0 Copyright (c) Steve Scherf et al.
# Submitted via: audiograbber 1.83.01
#
DISCID=8b09cc0c
DTITLE=Alby Pool - Back In The Swing
DYEAR=2005
DGENRE=Country
TTITLE0=Heart Of The Matter
TTITLE1=Mirrors Don't Lie
TTITLE2=I Guess You Had To Be There
TTITLE3=Back In The Swing
TTITLE4=Bartender Blues
TTITLE5=Got No Reason Now For Going Ho
TTITLE6=Old Country
TTITLE7=Memories To Burn
TTITLE8=One Step At A Time
TTITLE9=Old Habits
TTITLE10=Uptown Downtown
TTITLE11=Bonus Track
EXTD=
EXTT0=
EXTT1=
EXTT2=
EXTT3=
EXTT4=
EXTT5=
EXTT6=
EXTT7=
EXTT8=
EXTT9=
EXTT10=
EXTT11=
PLAYORDER=
